<svg xmlns="http://www.w3.org/2000/svg" xmlns:svgjs="http://svgjs.com/svgjs" xmlns:xlink="http://www.w3.org/1999/xlink" id="SvgjsSvg1099" width="920" height="531" version="1.1"><defs id="SvgjsDefs1100"><marker id="SvgjsMarker1140" markerHeight="12" markerUnits="userSpaceOnUse" markerWidth="16" orient="auto" refX="16" refY="6" viewBox="0 0 16 12"><path id="SvgjsPath1141" fill="#323232" stroke="#323232" stroke-width="2" d="M0,2 L14,6 L0,11 L0,2"/></marker><marker id="SvgjsMarker1148" markerHeight="12" markerUnits="userSpaceOnUse" markerWidth="16" orient="auto" refX="16" refY="6" viewBox="0 0 16 12"><path id="SvgjsPath1149" fill="#323232" stroke="#323232" stroke-width="2" d="M0,2 L14,6 L0,11 L0,2"/></marker><marker id="SvgjsMarker1152" markerHeight="12" markerUnits="userSpaceOnUse" markerWidth="16" orient="auto" refX="16" refY="6" viewBox="0 0 16 12"><path id="SvgjsPath1153" fill="#323232" stroke="#323232" stroke-width="2" d="M0,2 L14,6 L0,11 L0,2"/></marker><marker id="SvgjsMarker1160" markerHeight="12" markerUnits="userSpaceOnUse" markerWidth="16" orient="auto" refX="16" refY="6" viewBox="0 0 16 12"><path id="SvgjsPath1161" fill="#323232" stroke="#323232" stroke-width="2" d="M0,2 L14,6 L0,11 L0,2"/></marker><marker id="SvgjsMarker1168" markerHeight="12" markerUnits="userSpaceOnUse" markerWidth="16" orient="auto" refX="16" refY="6" viewBox="0 0 16 12"><path id="SvgjsPath1169" fill="#323232" stroke="#323232" stroke-width="2" d="M0,2 L14,6 L0,11 L0,2"/></marker><marker id="SvgjsMarker1174" markerHeight="12" markerUnits="userSpaceOnUse" markerWidth="16" orient="auto" refX="16" refY="6" viewBox="0 0 16 12"><path id="SvgjsPath1175" fill="#323232" stroke="#323232" stroke-width="2" d="M0,2 L14,6 L0,11 L0,2"/></marker><marker id="SvgjsMarker1182" markerHeight="12" markerUnits="userSpaceOnUse" markerWidth="16" orient="auto" refX="16" refY="6" viewBox="0 0 16 12"><path id="SvgjsPath1183" fill="#323232" stroke="#323232" stroke-width="2" d="M0,2 L14,6 L0,11 L0,2"/></marker><marker id="SvgjsMarker1186" markerHeight="12" markerUnits="userSpaceOnUse" markerWidth="16" orient="auto" refX="16" refY="6" viewBox="0 0 16 12"><path id="SvgjsPath1187" fill="#323232" stroke="#323232" stroke-width="2" d="M0,2 L14,6 L0,11 L0,2"/></marker></defs><rect id="SvgjsRect1101" width="920" height="531" fill="#fff"/><g id="SvgjsG1102" transform="translate(272,25)"><path id="SvgjsPath1103" fill="none" stroke="#323232" stroke-dasharray="3 4" stroke-width="2" d="M 77 30L 77 481"/><path id="SvgjsPath1104" fill="#fff" fill-opacity="1" stroke="#323232" stroke-width="2" d="M 0 0L 154 0L 154 30L 0 30Z"/><g id="SvgjsG1105"><text id="SvgjsText1106" width="125" y="5.05" fill="#323232" align="middle" anchor="middle" family="微软雅黑" font-family="微软雅黑" font-size="13" font-weight="400" size="13" text-anchor="middle" transform="rotate(0)" weight="400"><tspan id="SvgjsTspan1107" x="77" dy="16"><tspan id="SvgjsTspan1108">Operator-Controller</tspan></tspan></text></g></g><g id="SvgjsG1109" transform="translate(25,25)"><path id="SvgjsPath1110" fill="none" stroke="#323232" stroke-dasharray="3 4" stroke-width="2" d="M 56 30L 56 481"/><path id="SvgjsPath1111" fill="#fff" fill-opacity="1" stroke="#323232" stroke-width="2" d="M 0 0L 112 0L 112 30L 0 30Z"/><g id="SvgjsG1112"><text id="SvgjsText1113" width="83" y="5.05" fill="#323232" align="middle" anchor="middle" family="微软雅黑" font-family="微软雅黑" font-size="13" font-weight="400" size="13" text-anchor="middle" transform="rotate(0)" weight="400"><tspan id="SvgjsTspan1114" x="56" dy="16"><tspan id="SvgjsTspan1115">MetricSource</tspan></tspan></text></g></g><g id="SvgjsG1116" transform="translate(66,80)"><path id="SvgjsPath1117" fill="#fff" fill-opacity="1" stroke="#323232" stroke-width="2" d="M 0 4Q 0 0 4 0L 26 0Q 30 0 30 4L 30 282Q 30 286 26 286L 4 286Q 0 286 0 282L 0 4Z"/></g><g id="SvgjsG1118" transform="translate(748,25)"><path id="SvgjsPath1119" fill="none" stroke="#323232" stroke-dasharray="3 4" stroke-width="2" d="M 73.25 30L 73.25 481"/><path id="SvgjsPath1120" fill="#fff" fill-opacity="1" stroke="#323232" stroke-width="2" d="M 0 0L 146.5 0L 146.5 30L 0 30Z"/><g id="SvgjsG1121"><text id="SvgjsText1122" width="82" y="5.05" fill="#323232" align="middle" anchor="middle" family="微软雅黑" font-family="微软雅黑" font-size="13" font-weight="400" size="13" text-anchor="middle" transform="rotate(0)" weight="400"><tspan id="SvgjsTspan1123" x="73.5" dy="16"><tspan id="SvgjsTspan1124">metric-server</tspan></tspan></text></g></g><g id="SvgjsG1125" transform="translate(806.25,85)"><path id="SvgjsPath1126" fill="#fff" fill-opacity="1" stroke="#323232" stroke-width="2" d="M 0 4Q 0 0 4 0L 26 0Q 30 0 30 4L 30 101Q 30 105 26 105L 4 105Q 0 105 0 101L 0 4Z"/></g><g id="SvgjsG1127" transform="translate(550,25)"><path id="SvgjsPath1128" fill="none" stroke="#323232" stroke-dasharray="3 4" stroke-width="2" d="M 73.25 30L 73.25 481"/><path id="SvgjsPath1129" fill="#fff" fill-opacity="1" stroke="#323232" stroke-width="2" d="M 0 0L 146.5 0L 146.5 30L 0 30Z"/><g id="SvgjsG1130"><text id="SvgjsText1131" width="62" y="5.05" fill="#323232" align="middle" anchor="middle" family="微软雅黑" font-family="微软雅黑" font-size="13" font-weight="400" size="13" text-anchor="middle" transform="rotate(0)" weight="400"><tspan id="SvgjsTspan1132" x="73.5" dy="16"><tspan id="SvgjsTspan1133">api-server</tspan></tspan></text></g></g><g id="SvgjsG1134" transform="translate(334,312)"><path id="SvgjsPath1135" fill="#fff" fill-opacity="1" stroke="#323232" stroke-width="2" d="M 0 4Q 0 0 4 0L 26 0Q 30 0 30 4L 30 171.33334350585938Q 30 175.33334350585938 26 175.33334350585938L 4 175.33334350585938Q 0 175.33334350585938 0 171.33334350585938L 0 4Z"/></g><g id="SvgjsG1136" transform="translate(608.25,190)"><path id="SvgjsPath1137" fill="#fff" fill-opacity="1" stroke="#323232" stroke-width="2" d="M 0 4Q 0 0 4 0L 26 0Q 30 0 30 4L 30 96Q 30 100 26 100L 4 100Q 0 100 0 96L 0 4Z"/></g><g id="SvgjsG1138"><path id="SvgjsPath1139" fill="none" stroke="#323232" stroke-width="2" marker-end="url(#SvgjsMarker1140)" d="M96 112.33333587646484L451.125 112.33333587646484L451.125 112.33333587646484L806.25 112.33333587646484"/><rect id="SvgjsRect1142" width="78" height="16" x="412.125" y="104.333" fill="#fff"/><text id="SvgjsText1143" width="78" y="102.383" fill="#323232" align="top" anchor="middle" family="微软雅黑" font-family="微软雅黑" font-size="13" font-weight="400" size="13" text-anchor="middle" transform="rotate(0)" weight="400"><tspan id="SvgjsTspan1144" x="451.125" dy="16"><tspan id="SvgjsTspan1145">拉取监控数据</tspan></tspan></text></g><g id="SvgjsG1146"><path id="SvgjsPath1147" fill="none" stroke="#323232" stroke-dasharray="8 5" stroke-width="2" marker-end="url(#SvgjsMarker1148)" d="M806.25 158L450.7916667461395 158L450.7916667461395 158L95.33333349227905 158"/></g><g id="SvgjsG1150"><path id="SvgjsPath1151" fill="none" stroke="#323232" stroke-width="2" marker-end="url(#SvgjsMarker1152)" d="M95.33333349227905 329.95454742458867L214.79166674613953 329.95454742458867L214.79166674613953 331.3333435058594L334.25 331.3333435058594"/><rect id="SvgjsRect1154" width="65" height="16" x="182.292" y="322.644" fill="#fff"/><text id="SvgjsText1155" width="65" y="320.694" fill="#323232" align="top" anchor="middle" family="微软雅黑" font-family="微软雅黑" font-size="13" font-weight="400" size="13" text-anchor="middle" transform="rotate(0)" weight="400"><tspan id="SvgjsTspan1156" x="214.792" dy="16"><tspan id="SvgjsTspan1157">更新监控项</tspan></tspan></text></g><g id="SvgjsG1158"><path id="SvgjsPath1159" fill="none" stroke="#323232" stroke-width="2" marker-end="url(#SvgjsMarker1160)" d="M92.33333349227905 216L350.70833349227905 216L350.70833349227905 216L609.083333492279 216"/><rect id="SvgjsRect1162" width="78" height="16" x="311.708" y="208" fill="#fff"/><text id="SvgjsText1163" width="78" y="206.05" fill="#323232" align="top" anchor="middle" family="微软雅黑" font-family="微软雅黑" font-size="13" font-weight="400" size="13" text-anchor="middle" transform="rotate(0)" weight="400"><tspan id="SvgjsTspan1164" x="350.708" dy="16"><tspan id="SvgjsTspan1165">拉取监控数据</tspan></tspan></text></g><g id="SvgjsG1166"><path id="SvgjsPath1167" fill="none" stroke="#323232" stroke-dasharray="8 5" stroke-width="2" marker-end="url(#SvgjsMarker1168)" d="M609.083333492279 266L351.20833349227905 266L351.20833349227905 266L93.33333349227905 266"/></g><g id="SvgjsG1170" transform="translate(608.25,315)"><path id="SvgjsPath1171" fill="#fff" fill-opacity="1" stroke="#323232" stroke-width="2" d="M 0 4Q 0 0 4 0L 26 0Q 30 0 30 4L 30 168.33334350585938Q 30 172.33334350585938 26 172.33334350585938L 4 172.33334350585938Q 0 172.33334350585938 0 168.33334350585938L 0 4Z"/></g><g id="SvgjsG1172"><path id="SvgjsPath1173" fill="none" stroke="#323232" stroke-width="2" marker-end="url(#SvgjsMarker1174)" d="M369.75 357.7862094221444L489.25 357.7862094221444L489.25 357.7862094221444L608.75 357.7862094221444"/><rect id="SvgjsRect1176" width="112" height="16" x="433.25" y="349.786" fill="#fff"/><text id="SvgjsText1177" width="112" y="347.836" fill="#323232" align="top" anchor="middle" family="微软雅黑" font-family="微软雅黑" font-size="13" font-weight="400" size="13" text-anchor="middle" transform="rotate(0)" weight="400"><tspan id="SvgjsTspan1178" x="489.25" dy="16"><tspan id="SvgjsTspan1179">查询对应Slime资源</tspan></tspan></text></g><g id="SvgjsG1180"><path id="SvgjsPath1181" fill="none" stroke="#323232" stroke-dasharray="8 5" stroke-width="2" marker-end="url(#SvgjsMarker1182)" d="M608.75 401.3333435058594L486 401.3333435058594L486 401.3333435058594L363.25 401.3333435058594"/></g><g id="SvgjsG1184"><path id="SvgjsPath1185" fill="none" stroke="#323232" stroke-width="2" marker-end="url(#SvgjsMarker1186)" d="M363.25 451.3333435058594L485.875 451.3333435058594L485.875 447L608.5 447"/><rect id="SvgjsRect1188" width="145" height="16" x="413.375" y="441.167" fill="#fff"/><text id="SvgjsText1189" width="144" y="439.217" fill="#323232" align="top" anchor="middle" family="微软雅黑" font-family="微软雅黑" font-size="13" font-weight="400" size="13" text-anchor="middle" transform="rotate(0)" weight="400"><tspan id="SvgjsTspan1190" x="485.875" dy="16"><tspan id="SvgjsTspan1191">更新GatewayPlugin资源</tspan></tspan></text></g></svg>