<svg xmlns="http://www.w3.org/2000/svg" xmlns:svgjs="http://svgjs.com/svgjs" xmlns:xlink="http://www.w3.org/1999/xlink" id="SvgjsSvg1006" width="722" height="531" version="1.1"><defs id="SvgjsDefs1007"><marker id="SvgjsMarker1038" markerHeight="12" markerUnits="userSpaceOnUse" markerWidth="16" orient="auto" refX="16" refY="6" viewBox="0 0 16 12"><path id="SvgjsPath1039" fill="#323232" stroke="#323232" stroke-width="2" d="M0,2 L14,6 L0,11 L0,2"/></marker><marker id="SvgjsMarker1046" markerHeight="12" markerUnits="userSpaceOnUse" markerWidth="16" orient="auto" refX="16" refY="6" viewBox="0 0 16 12"><path id="SvgjsPath1047" fill="#323232" stroke="#323232" stroke-width="2" d="M0,2 L14,6 L0,11 L0,2"/></marker><marker id="SvgjsMarker1050" markerHeight="12" markerUnits="userSpaceOnUse" markerWidth="16" orient="auto" refX="16" refY="6" viewBox="0 0 16 12"><path id="SvgjsPath1051" fill="#323232" stroke="#323232" stroke-width="2" d="M0,2 L14,6 L0,11 L0,2"/></marker><marker id="SvgjsMarker1060" markerHeight="12" markerUnits="userSpaceOnUse" markerWidth="16" orient="auto" refX="16" refY="6" viewBox="0 0 16 12"><path id="SvgjsPath1061" fill="#323232" stroke="#323232" stroke-width="2" d="M0,2 L14,6 L0,11 L0,2"/></marker><marker id="SvgjsMarker1068" markerHeight="12" markerUnits="userSpaceOnUse" markerWidth="16" orient="auto" refX="16" refY="6" viewBox="0 0 16 12"><path id="SvgjsPath1069" fill="#323232" stroke="#323232" stroke-width="2" d="M0,2 L14,6 L0,11 L0,2"/></marker><marker id="SvgjsMarker1078" markerHeight="12" markerUnits="userSpaceOnUse" markerWidth="16" orient="auto" refX="16" refY="6" viewBox="0 0 16 12"><path id="SvgjsPath1079" fill="#323232" stroke="#323232" stroke-width="2" d="M0,2 L14,6 L0,11 L0,2"/></marker></defs><rect id="SvgjsRect1008" width="722" height="531" fill="#fff"/><g id="SvgjsG1009" transform="translate(272,24.999996185302734)"><path id="SvgjsPath1010" fill="none" stroke="#323232" stroke-dasharray="3 4" stroke-width="2" d="M 77 30L 77 481"/><path id="SvgjsPath1011" fill="#fff" fill-opacity="1" stroke="#323232" stroke-width="2" d="M 0 0L 154 0L 154 30L 0 30Z"/><g id="SvgjsG1012"><text id="SvgjsText1013" width="125" y="5.05" fill="#323232" align="middle" anchor="middle" family="微软雅黑" font-family="微软雅黑" font-size="13" font-weight="400" size="13" text-anchor="middle" transform="rotate(0)" weight="400"><tspan id="SvgjsTspan1014" x="77" dy="16"><tspan id="SvgjsTspan1015">Operator-Controller</tspan></tspan></text></g></g><g id="SvgjsG1016" transform="translate(25,24.999996185302734)"><path id="SvgjsPath1017" fill="none" stroke="#323232" stroke-dasharray="3 4" stroke-width="2" d="M 56 30L 56 481"/><path id="SvgjsPath1018" fill="#fff" fill-opacity="1" stroke="#323232" stroke-width="2" d="M 0 0L 112 0L 112 30L 0 30Z"/><g id="SvgjsG1019"><text id="SvgjsText1020" width="83" y="5.05" fill="#323232" align="middle" anchor="middle" family="微软雅黑" font-family="微软雅黑" font-size="13" font-weight="400" size="13" text-anchor="middle" transform="rotate(0)" weight="400"><tspan id="SvgjsTspan1021" x="56" dy="16"><tspan id="SvgjsTspan1022">MetricSource</tspan></tspan></text></g></g><g id="SvgjsG1023" transform="translate(66,79.99999618530273)"><path id="SvgjsPath1024" fill="#fff" fill-opacity="1" stroke="#323232" stroke-width="2" d="M 0 4Q 0 0 4 0L 26 0Q 30 0 30 4L 30 282Q 30 286 26 286L 4 286Q 0 286 0 282L 0 4Z"/></g><g id="SvgjsG1025" transform="translate(550,24.999996185302734)"><path id="SvgjsPath1026" fill="none" stroke="#323232" stroke-dasharray="3 4" stroke-width="2" d="M 73.25 30L 73.25 481"/><path id="SvgjsPath1027" fill="#fff" fill-opacity="1" stroke="#323232" stroke-width="2" d="M 0 0L 146.5 0L 146.5 30L 0 30Z"/><g id="SvgjsG1028"><text id="SvgjsText1029" width="62" y="5.05" fill="#323232" align="middle" anchor="middle" family="微软雅黑" font-family="微软雅黑" font-size="13" font-weight="400" size="13" text-anchor="middle" transform="rotate(0)" weight="400"><tspan id="SvgjsTspan1030" x="73.5" dy="16"><tspan id="SvgjsTspan1031">api-server</tspan></tspan></text></g></g><g id="SvgjsG1032" transform="translate(608.25,79.99999618530273)"><path id="SvgjsPath1033" fill="#fff" fill-opacity="1" stroke="#323232" stroke-width="2" d="M 0 4Q 0 0 4 0L 26 0Q 30 0 30 4L 30 36Q 30 40 26 40L 4 40Q 0 40 0 36L 0 4Z"/></g><g id="SvgjsG1034" transform="translate(608.25,314.99999618530273)"><path id="SvgjsPath1035" fill="#fff" fill-opacity="1" stroke="#323232" stroke-width="2" d="M 0 4Q 0 0 4 0L 26 0Q 30 0 30 4L 30 168.33334350585938Q 30 172.33334350585938 26 172.33334350585938L 4 172.33334350585938Q 0 172.33334350585938 0 168.33334350585938L 0 4Z"/></g><g id="SvgjsG1036"><path id="SvgjsPath1037" fill="none" stroke="#323232" stroke-width="2" marker-end="url(#SvgjsMarker1038)" d="M369.75 357.78620560744713L489.25 357.78620560744713L489.25 357.78620560744713L608.75 357.78620560744713"/><rect id="SvgjsRect1040" width="112" height="16" x="433.25" y="349.786" fill="#fff"/><text id="SvgjsText1041" width="112" y="347.836" fill="#323232" align="top" anchor="middle" family="微软雅黑" font-family="微软雅黑" font-size="13" font-weight="400" size="13" text-anchor="middle" transform="rotate(0)" weight="400"><tspan id="SvgjsTspan1042" x="489.25" dy="16"><tspan id="SvgjsTspan1043">查询对应Slime资源</tspan></tspan></text></g><g id="SvgjsG1044"><path id="SvgjsPath1045" fill="none" stroke="#323232" stroke-dasharray="8 5" stroke-width="2" marker-end="url(#SvgjsMarker1046)" d="M608.75 401.3333396911621L486 401.3333396911621L486 401.3333396911621L363.25 401.3333396911621"/></g><g id="SvgjsG1048"><path id="SvgjsPath1049" fill="none" stroke="#323232" stroke-width="2" marker-end="url(#SvgjsMarker1050)" d="M363.25 451.3333396911621L485.875 451.3333396911621L485.875 446.99999618530273L608.5 446.99999618530273"/><rect id="SvgjsRect1052" width="145" height="16" x="413.375" y="441.167" fill="#fff"/><text id="SvgjsText1053" width="144" y="439.217" fill="#323232" align="top" anchor="middle" family="微软雅黑" font-family="微软雅黑" font-size="13" font-weight="400" size="13" text-anchor="middle" transform="rotate(0)" weight="400"><tspan id="SvgjsTspan1054" x="485.875" dy="16"><tspan id="SvgjsTspan1055">更新GatewayPlugin资源</tspan></tspan></text></g><g id="SvgjsG1056" transform="translate(337.25,79.99999618530273)"><path id="SvgjsPath1057" fill="#fff" fill-opacity="1" stroke="#323232" stroke-width="2" d="M 0 4Q 0 0 4 0L 26 0Q 30 0 30 4L 30 71.3333330154419Q 30 75.3333330154419 26 75.3333330154419L 4 75.3333330154419Q 0 75.3333330154419 0 71.3333330154419L 0 4Z"/></g><g id="SvgjsG1058"><path id="SvgjsPath1059" fill="none" stroke="#323232" stroke-width="2" marker-end="url(#SvgjsMarker1060)" d="M609 100.99999618530273L488 100.99999618530273L488 102.33332920074463L367 102.33332920074463"/><rect id="SvgjsRect1062" width="82" height="16" x="447" y="93.667" fill="#fff"/><text id="SvgjsText1063" width="82" y="91.717" fill="#323232" align="top" anchor="middle" family="微软雅黑" font-family="微软雅黑" font-size="13" font-weight="400" size="13" text-anchor="middle" transform="rotate(0)" weight="400"><tspan id="SvgjsTspan1064" x="488" dy="16"><tspan id="SvgjsTspan1065">添加slime crd</tspan></tspan></text></g><g id="SvgjsG1066"><path id="SvgjsPath1067" fill="none" stroke="#323232" stroke-width="2" marker-end="url(#SvgjsMarker1068)" d="M337.25 130.99999618530273L215.625 130.99999618530273L215.625 130.99999618530273L94 130.99999618530273"/><rect id="SvgjsRect1070" width="65" height="16" x="183.125" y="123" fill="#fff"/><text id="SvgjsText1071" width="65" y="121.05" fill="#323232" align="top" anchor="middle" family="微软雅黑" font-family="微软雅黑" font-size="13" font-weight="400" size="13" text-anchor="middle" transform="rotate(0)" weight="400"><tspan id="SvgjsTspan1072" x="215.625" dy="16"><tspan id="SvgjsTspan1073">WatchAdd</tspan></tspan></text></g><g id="SvgjsG1074" transform="translate(334,286.99999618530273)"><path id="SvgjsPath1075" fill="#fff" fill-opacity="1" stroke="#323232" stroke-width="2" d="M 0 4Q 0 0 4 0L 26 0Q 30 0 30 4L 30 184.33333587646484Q 30 188.33333587646484 26 188.33333587646484L 4 188.33333587646484Q 0 188.33333587646484 0 184.33333587646484L 0 4Z"/></g><g id="SvgjsG1076"><path id="SvgjsPath1077" fill="none" stroke="#323232" stroke-width="2" marker-end="url(#SvgjsMarker1078)" d="M96 307.33332920074463L215 307.33332920074463L215 306.3333320617676L334 306.3333320617676"/><rect id="SvgjsRect1080" width="117" height="16" x="156.5" y="298.833" fill="#fff"/><text id="SvgjsText1081" width="117" y="296.883" fill="#323232" align="top" anchor="middle" family="微软雅黑" font-family="微软雅黑" font-size="13" font-weight="400" size="13" text-anchor="middle" transform="rotate(0)" weight="400"><tspan id="SvgjsTspan1082" x="215" dy="16"><tspan id="SvgjsTspan1083">新实例的监控项更新</tspan></tspan></text></g></svg>