<svg xmlns="http://www.w3.org/2000/svg" xmlns:svgjs="http://svgjs.com/svgjs" xmlns:xlink="http://www.w3.org/1999/xlink" id="SvgjsSvg1140" width="749.677" height="549.5" version="1.1"><defs id="SvgjsDefs1141"><marker id="SvgjsMarker1166" markerHeight="12" markerUnits="userSpaceOnUse" markerWidth="16" orient="auto" refX="16" refY="6" viewBox="0 0 16 12"><path id="SvgjsPath1167" fill="#323232" stroke="#323232" stroke-width="2" d="M0,2 L14,6 L0,11 L0,2"/></marker><marker id="SvgjsMarker1170" markerHeight="12" markerUnits="userSpaceOnUse" markerWidth="16" orient="auto" refX="16" refY="6" viewBox="0 0 16 12"><path id="SvgjsPath1171" fill="#323232" stroke="#323232" stroke-width="2" d="M0,2 L14,6 L0,11 L0,2"/></marker><marker id="SvgjsMarker1180" markerHeight="12" markerUnits="userSpaceOnUse" markerWidth="16" orient="auto" refX="16" refY="6" viewBox="0 0 16 12"><path id="SvgjsPath1181" fill="#323232" stroke="#323232" stroke-width="2" d="M0,2 L14,6 L0,11 L0,2"/></marker><marker id="SvgjsMarker1210" markerHeight="12" markerUnits="userSpaceOnUse" markerWidth="16" orient="auto" refX="16" refY="6" viewBox="0 0 16 12"><path id="SvgjsPath1211" fill="#323232" stroke="#323232" stroke-width="2" d="M0,2 L14,6 L0,11 L0,2"/></marker><marker id="SvgjsMarker1214" markerHeight="12" markerUnits="userSpaceOnUse" markerWidth="16" orient="auto" refX="16" refY="6" viewBox="0 0 16 12"><path id="SvgjsPath1215" fill="#323232" stroke="#323232" stroke-width="2" d="M0,2 L14,6 L0,11 L0,2"/></marker><marker id="SvgjsMarker1218" markerHeight="12" markerUnits="userSpaceOnUse" markerWidth="16" orient="auto" refX="16" refY="6" viewBox="0 0 16 12"><path id="SvgjsPath1219" fill="#323232" stroke="#323232" stroke-width="2" d="M0,2 L14,6 L0,11 L0,2"/></marker><marker id="SvgjsMarker1228" markerHeight="12" markerUnits="userSpaceOnUse" markerWidth="16" orient="auto" refX="16" refY="6" viewBox="0 0 16 12"><path id="SvgjsPath1229" fill="#323232" stroke="#323232" stroke-width="2" d="M0,2 L14,6 L0,11 L0,2"/></marker><marker id="SvgjsMarker1248" markerHeight="12" markerUnits="userSpaceOnUse" markerWidth="16" orient="auto" refX="16" refY="6" viewBox="0 0 16 12"><path id="SvgjsPath1249" fill="#323232" stroke="#323232" stroke-width="2" d="M0,2 L14,6 L0,11 L0,2"/></marker><marker id="SvgjsMarker1284" markerHeight="12" markerUnits="userSpaceOnUse" markerWidth="16" orient="auto" refX="16" refY="6" viewBox="0 0 16 12"><path id="SvgjsPath1285" fill="#323232" stroke="#323232" stroke-width="2" d="M0,2 L14,6 L0,11 L0,2"/></marker><marker id="SvgjsMarker1288" markerHeight="12" markerUnits="userSpaceOnUse" markerWidth="16" orient="auto" refX="16" refY="6" viewBox="0 0 16 12"><path id="SvgjsPath1289" fill="#323232" stroke="#323232" stroke-width="2" d="M0,2 L14,6 L0,11 L0,2"/></marker></defs><g id="SvgjsG1142" transform="translate(276.6770782470703,253.8333339691162)"><path id="SvgjsPath1143" fill="#fff" fill-opacity="1" stroke="#323232" stroke-width="2" d="M 0 0L 185 0L 185 121.66666603088379L 0 121.66666603088379Z"/></g><g id="SvgjsG1146" transform="translate(322.1770782470703,284.5)"><path id="SvgjsPath1147" fill="#fff" fill-opacity="1" stroke="#323232" stroke-width="2" d="M 0 0L 94 0L 94 28L 0 28Z"/><g id="SvgjsG1148"><text id="SvgjsText1149" width="41" y="4.05" fill="#323232" align="middle" anchor="middle" family="微软雅黑" font-family="微软雅黑" font-size="13" font-weight="400" size="13" text-anchor="middle" transform="rotate(0)" weight="400"><tspan id="SvgjsTspan1150" x="47" dy="16"><tspan id="SvgjsTspan1151">source</tspan></tspan></text></g></g><g id="SvgjsG1152" transform="translate(306.6770782470703,132.5)"><path id="SvgjsPath1153" fill="#fff" fill-opacity="1" stroke="#323232" stroke-width="2" d="M 0 0L 125 0L 125 32L 0 32Z"/><g id="SvgjsG1154"><text id="SvgjsText1155" width="82" y="6.05" fill="#323232" align="middle" anchor="middle" family="微软雅黑" font-family="微软雅黑" font-size="13" font-weight="400" size="13" text-anchor="middle" transform="rotate(0)" weight="400"><tspan id="SvgjsTspan1156" x="62.5" dy="16"><tspan id="SvgjsTspan1157">metric-server</tspan></tspan></text></g></g><g id="SvgjsG1158" transform="translate(149.6770782470703,132.5)"><path id="SvgjsPath1159" fill="#fff" fill-opacity="1" stroke="#323232" stroke-width="2" d="M 0 0L 125 0L 125 32L 0 32Z"/><g id="SvgjsG1160"><text id="SvgjsText1161" width="62" y="6.05" fill="#323232" align="middle" anchor="middle" family="微软雅黑" font-family="微软雅黑" font-size="13" font-weight="400" size="13" text-anchor="middle" transform="rotate(0)" weight="400"><tspan id="SvgjsTspan1162" x="62.5" dy="16"><tspan id="SvgjsTspan1163">api-server</tspan></tspan></text></g></g><g id="SvgjsG1164"><path id="SvgjsPath1165" fill="none" stroke="#323232" stroke-width="2" marker-end="url(#SvgjsMarker1166)" d="M212.1770782470703 164.5L212.1770782470703 224.5L369.1770782470703 224.5L369.1770782470703 284.5"/></g><g id="SvgjsG1168"><path id="SvgjsPath1169" fill="none" stroke="#323232" stroke-width="2" marker-end="url(#SvgjsMarker1170)" d="M369.1770782470703 164.5L369.1770782470703 224.5L369.1770782470703 224.5L369.1770782470703 284.5"/></g><g id="SvgjsG1172" transform="translate(467.6770782470703,132.5)"><path id="SvgjsPath1173" fill="#fff" fill-opacity="1" stroke="#323232" stroke-width="2" d="M 0 0L 125 0L 125 32L 0 32Z"/><g id="SvgjsG1174"><text id="SvgjsText1175" width="65" y="6.05" fill="#323232" align="middle" anchor="middle" family="微软雅黑" font-family="微软雅黑" font-size="13" font-weight="400" size="13" text-anchor="middle" transform="rotate(0)" weight="400"><tspan id="SvgjsTspan1176" x="62.5" dy="16"><tspan id="SvgjsTspan1177">ext-source</tspan></tspan></text></g></g><g id="SvgjsG1178"><path id="SvgjsPath1179" fill="none" stroke="#323232" stroke-width="2" marker-end="url(#SvgjsMarker1180)" d="M530.1770782470703 164.5L530.1770782470703 224.5L369.1770782470703 224.5L369.1770782470703 284.5"/></g><g id="SvgjsG1182"><path id="SvgjsPath1183" fill="none" stroke="#323232" stroke-dasharray="3 3" stroke-width="2" d="M86.67707824707031 196.5L357.1770782470703 196.5L357.1770782470703 196.5L627.6770782470703 196.5"/></g><g id="SvgjsG1184" transform="translate(627.6770782470703,127.5)"><path id="SvgjsPath1185" fill="none" stroke="none" d="M 0 0L 97 0L 97 42L 0 42Z"/><g id="SvgjsG1186"><text id="SvgjsText1187" width="39" y="11.05" fill="#323232" align="middle" anchor="middle" family="微软雅黑" font-family="微软雅黑" font-size="13" font-weight="400" size="13" text-anchor="middle" transform="rotate(0)" weight="400"><tspan id="SvgjsTspan1188" x="48.5" dy="16"><tspan id="SvgjsTspan1189">监控源</tspan></tspan></text></g></g><g id="SvgjsG1190" transform="translate(282.6770782470703,32.5)"><path id="SvgjsPath1191" fill="#fff" fill-opacity="1" stroke="#323232" stroke-width="2" d="M 0 0L 67 0L 67 27L 0 27Z"/><g id="SvgjsG1192"><text id="SvgjsText1193" width="23" y="3.55" fill="#323232" align="middle" anchor="middle" family="微软雅黑" font-family="微软雅黑" font-size="13" font-weight="400" size="13" text-anchor="middle" transform="rotate(0)" weight="400"><tspan id="SvgjsTspan1194" x="33.5" dy="16"><tspan id="SvgjsTspan1195">cpu</tspan></tspan></text></g></g><g id="SvgjsG1196" transform="translate(375.6770782470703,32.5)"><path id="SvgjsPath1197" fill="#fff" fill-opacity="1" stroke="#323232" stroke-width="2" d="M 0 0L 78 0L 78 27L 0 27Z"/><g id="SvgjsG1198"><text id="SvgjsText1199" width="52" y="3.55" fill="#323232" align="middle" anchor="middle" family="微软雅黑" font-family="微软雅黑" font-size="13" font-weight="400" size="13" text-anchor="middle" transform="rotate(0)" weight="400"><tspan id="SvgjsTspan1200" x="39" dy="16"><tspan id="SvgjsTspan1201">memory</tspan></tspan></text></g></g><g id="SvgjsG1202" transform="translate(178.6770782470703,32.5)"><path id="SvgjsPath1203" fill="#fff" fill-opacity="1" stroke="#323232" stroke-width="2" d="M 0 0L 67 0L 67 27L 0 27Z"/><g id="SvgjsG1204"><text id="SvgjsText1205" width="25" y="3.55" fill="#323232" align="middle" anchor="middle" family="微软雅黑" font-family="微软雅黑" font-size="13" font-weight="400" size="13" text-anchor="middle" transform="rotate(0)" weight="400"><tspan id="SvgjsTspan1206" x="33.5" dy="16"><tspan id="SvgjsTspan1207">pod</tspan></tspan></text></g></g><g id="SvgjsG1208"><path id="SvgjsPath1209" fill="none" stroke="#323232" stroke-width="2" marker-end="url(#SvgjsMarker1210)" d="M212.1770782470703 59.5L212.1770782470703 96L212.1770782470703 96L212.1770782470703 132.5"/></g><g id="SvgjsG1212"><path id="SvgjsPath1213" fill="none" stroke="#323232" stroke-width="2" marker-end="url(#SvgjsMarker1214)" d="M316.1770782470703 59.5L316.1770782470703 96L369.1770782470703 96L369.1770782470703 132.5"/></g><g id="SvgjsG1216"><path id="SvgjsPath1217" fill="none" stroke="#323232" stroke-width="2" marker-end="url(#SvgjsMarker1218)" d="M414.6770782470703 59.5L414.6770782470703 96L369.1770782470703 96L369.1770782470703 132.5"/></g><g id="SvgjsG1220" transform="translate(478.5520782470703,33)"><path id="SvgjsPath1221" fill="#fff" fill-opacity="1" stroke="#323232" stroke-width="2" d="M 0 0L 103.25 0L 103.25 26L 0 26Z"/><g id="SvgjsG1222"><text id="SvgjsText1223" width="78" y="3.05" fill="#323232" align="middle" anchor="middle" family="微软雅黑" font-family="微软雅黑" font-size="13" font-weight="400" size="13" text-anchor="middle" transform="rotate(0)" weight="400"><tspan id="SvgjsTspan1224" x="52" dy="16"><tspan id="SvgjsTspan1225">自定义监控项</tspan></tspan></text></g></g><g id="SvgjsG1226"><path id="SvgjsPath1227" fill="none" stroke="#323232" stroke-width="2" marker-end="url(#SvgjsMarker1228)" d="M530.1770782470703 59L530.1770782470703 95.75L530.1770782470703 95.75L530.1770782470703 132.5"/></g><g id="SvgjsG1230"><path id="SvgjsPath1231" fill="none" stroke="#323232" stroke-dasharray="3 3" stroke-width="2" d="M89.67707824707031 85.5L360.1770782470703 85.5L360.1770782470703 85.5L630.6770782470703 85.5"/></g><g id="SvgjsG1232" transform="translate(627.6770782470703,25)"><path id="SvgjsPath1233" fill="none" stroke="none" d="M 0 0L 97 0L 97 42L 0 42Z"/><g id="SvgjsG1234"><text id="SvgjsText1235" width="39" y="11.05" fill="#323232" align="middle" anchor="middle" family="微软雅黑" font-family="微软雅黑" font-size="13" font-weight="400" size="13" text-anchor="middle" transform="rotate(0)" weight="400"><tspan id="SvgjsTspan1236" x="48.5" dy="16"><tspan id="SvgjsTspan1237">监控项</tspan></tspan></text></g></g><g id="SvgjsG1238" transform="translate(25.010391235351562,329.1666669845581)"><path id="SvgjsPath1239" fill="#fff" fill-opacity="1" stroke="#323232" stroke-width="2" d="M 0 0L 105.83331298828125 0L 105.83331298828125 28L 0 28Z"/><g id="SvgjsG1240"><text id="SvgjsText1241" width="75" y="4.05" fill="#323232" align="middle" anchor="middle" family="微软雅黑" font-family="微软雅黑" font-size="13" font-weight="400" size="13" text-anchor="middle" transform="rotate(0)" weight="400"><tspan id="SvgjsTspan1242" x="53" dy="16"><tspan id="SvgjsTspan1243">smartlimiter</tspan></tspan></text></g></g><g id="SvgjsG1244"><path id="SvgjsPath1245" fill="none" stroke="#323232" stroke-dasharray="3 3" stroke-width="2" d="M180.6770782470703 255.5L180.6770782470703 389.83333587646484L180.6770782470703 389.83333587646484L180.6770782470703 524.1666717529297"/></g><g id="SvgjsG1246"><path id="SvgjsPath1247" fill="none" stroke="#323232" stroke-width="2" marker-end="url(#SvgjsMarker1248)" d="M130.8437042236328 343.1666669845581L211.88539123535156 343.1666669845581L211.88539123535156 343.1666669845581L292.9270782470703 343.1666669845581"/></g><g id="SvgjsG1250" transform="translate(36.42704772949219,272.5)"><path id="SvgjsPath1251" fill="none" stroke="none" d="M 0 0L 83 0L 83 24L 0 24Z"/><g id="SvgjsG1252"><text id="SvgjsText1253" width="27" y="2.05" fill="#323232" align="middle" anchor="middle" family="微软雅黑" font-family="微软雅黑" font-size="13" font-weight="400" size="13" text-anchor="middle" transform="rotate(0)" weight="400"><tspan id="SvgjsTspan1254" x="41.5" dy="16"><tspan id="SvgjsTspan1255">CRD</tspan></tspan></text></g></g><g id="SvgjsG1256" transform="translate(25.010391235351562,379.5)"><path id="SvgjsPath1257" fill="#fff" fill-opacity="1" stroke="#323232" stroke-width="2" d="M 0 0L 121 0L 121 47L 0 47Z"/><g id="SvgjsG1258"><text id="SvgjsText1259" width="100" y="5.55" fill="#323232" align="middle" anchor="middle" family="微软雅黑" font-family="微软雅黑" font-size="13" font-weight="400" size="13" text-anchor="middle" transform="rotate(0)" weight="400"><tspan id="SvgjsTspan1260" x="60.5" dy="16"><tspan id="SvgjsTspan1261">envoyplugin</tspan></tspan><tspan id="SvgjsTspan1262" x="60.5" dy="16"><tspan id="SvgjsTspan1263">(gatewayplugin)</tspan></tspan></text></g></g><g id="SvgjsG1264" transform="translate(25.010391235351562,452.5)"><path id="SvgjsPath1265" fill="#fff" fill-opacity="1" stroke="#323232" stroke-width="2" d="M 0 0L 130.66668701171875 0L 130.66668701171875 42L 0 42Z"/><g id="SvgjsG1266"><text id="SvgjsText1267" width="105" y="11.05" fill="#323232" align="middle" anchor="middle" family="微软雅黑" font-family="微软雅黑" font-size="13" font-weight="400" size="13" text-anchor="middle" transform="rotate(0)" weight="400"><tspan id="SvgjsTspan1268" x="65.5" dy="16"><tspan id="SvgjsTspan1269">filterDeployment</tspan></tspan></text></g></g><g id="SvgjsG1270" transform="translate(292.9270782470703,329.5)"><path id="SvgjsPath1271" fill="#fff" fill-opacity="1" stroke="#323232" stroke-width="2" d="M 0 0L 152.5 0L 152.5 27.33333396911621L 0 27.33333396911621Z"/><g id="SvgjsG1272"><text id="SvgjsText1273" width="119" y="3.717" fill="#323232" align="middle" anchor="middle" family="微软雅黑" font-family="微软雅黑" font-size="13" font-weight="400" size="13" text-anchor="middle" transform="rotate(0)" weight="400"><tspan id="SvgjsTspan1274" x="76.5" dy="16"><tspan id="SvgjsTspan1275">operator-controller</tspan></tspan></text></g></g><g id="SvgjsG1276" transform="translate(276.6770782470703,256.5)"><path id="SvgjsPath1277" fill="none" stroke="none" d="M 0 0L 81 0L 81 26L 0 26Z"/><g id="SvgjsG1278"><text id="SvgjsText1279" width="34" y="3.05" fill="#323232" align="middle" anchor="middle" family="微软雅黑" font-family="微软雅黑" font-size="13" font-weight="700" size="13" text-anchor="middle" transform="rotate(0)" weight="700"><tspan id="SvgjsTspan1280" x="40.5" dy="16"><tspan id="SvgjsTspan1281">slime</tspan></tspan></text></g></g><g id="SvgjsG1282"><path id="SvgjsPath1283" fill="none" stroke="#323232" stroke-width="2" marker-end="url(#SvgjsMarker1284)" d="M369.1770782470703 356.8333339691162L369.1770782470703 403L146.01039123535156 403"/></g><g id="SvgjsG1286"><path id="SvgjsPath1287" fill="none" stroke="#323232" stroke-dasharray="8 5" stroke-width="2" marker-end="url(#SvgjsMarker1288)" d="M369.1770782470703 356.8333339691162L369.1770782470703 473.5L155.6770782470703 473.5"/></g></svg>